<mxfile host="app.diagrams.net" modified="2022-09-18T20:40:04.131Z" agent="5.0 (Windows NT 10.0; WOW64) AppleWebKit/537.36 (KHTML, like Gecko) Chrome/102.0.5005.167 YaBrowser/22.7.5.1026 Yowser/2.5 Safari/537.36" etag="fIT058JRgHNddz6gkSM4" version="20.3.2" type="github">
  <diagram id="vgt0DCzhf4Tun2cX9geC" name="Страница 1">
    <mxGraphModel dx="1021" dy="1730" grid="1" gridSize="10" guides="1" tooltips="1" connect="1" arrows="1" fold="1" page="1" pageScale="1" pageWidth="827" pageHeight="1169" math="0" shadow="0">
      <root>
        <mxCell id="0" />
        <mxCell id="1" parent="0" />
        <mxCell id="TVZ77TM5p-_2qMqP_EqE-17" value="" style="shape=table;startSize=0;container=1;collapsible=0;childLayout=tableLayout;" parent="1" vertex="1">
          <mxGeometry x="230" y="40" width="260" height="170" as="geometry" />
        </mxCell>
        <mxCell id="TVZ77TM5p-_2qMqP_EqE-18" value="" style="shape=tableRow;horizontal=0;startSize=0;swimlaneHead=0;swimlaneBody=0;top=0;left=0;bottom=0;right=0;collapsible=0;dropTarget=0;fillColor=none;points=[[0,0.5],[1,0.5]];portConstraint=eastwest;" parent="TVZ77TM5p-_2qMqP_EqE-17" vertex="1">
          <mxGeometry width="260" height="43" as="geometry" />
        </mxCell>
        <mxCell id="TVZ77TM5p-_2qMqP_EqE-19" value="client_primary key" style="shape=partialRectangle;html=1;whiteSpace=wrap;connectable=0;overflow=hidden;fillColor=none;top=0;left=0;bottom=0;right=0;pointerEvents=1;" parent="TVZ77TM5p-_2qMqP_EqE-18" vertex="1">
          <mxGeometry width="120" height="43" as="geometry">
            <mxRectangle width="120" height="43" as="alternateBounds" />
          </mxGeometry>
        </mxCell>
        <mxCell id="TVZ77TM5p-_2qMqP_EqE-20" value="Пол клиента" style="shape=partialRectangle;html=1;whiteSpace=wrap;connectable=0;overflow=hidden;fillColor=none;top=0;left=0;bottom=0;right=0;pointerEvents=1;" parent="TVZ77TM5p-_2qMqP_EqE-18" vertex="1">
          <mxGeometry x="120" width="140" height="43" as="geometry">
            <mxRectangle width="140" height="43" as="alternateBounds" />
          </mxGeometry>
        </mxCell>
        <mxCell id="TVZ77TM5p-_2qMqP_EqE-21" value="" style="shape=tableRow;horizontal=0;startSize=0;swimlaneHead=0;swimlaneBody=0;top=0;left=0;bottom=0;right=0;collapsible=0;dropTarget=0;fillColor=none;points=[[0,0.5],[1,0.5]];portConstraint=eastwest;" parent="TVZ77TM5p-_2qMqP_EqE-17" vertex="1">
          <mxGeometry y="43" width="260" height="42" as="geometry" />
        </mxCell>
        <mxCell id="TVZ77TM5p-_2qMqP_EqE-22" value="1" style="shape=partialRectangle;html=1;whiteSpace=wrap;connectable=0;overflow=hidden;fillColor=none;top=0;left=0;bottom=0;right=0;pointerEvents=1;" parent="TVZ77TM5p-_2qMqP_EqE-21" vertex="1">
          <mxGeometry width="120" height="42" as="geometry">
            <mxRectangle width="120" height="42" as="alternateBounds" />
          </mxGeometry>
        </mxCell>
        <mxCell id="TVZ77TM5p-_2qMqP_EqE-23" value="женский" style="shape=partialRectangle;html=1;whiteSpace=wrap;connectable=0;overflow=hidden;fillColor=none;top=0;left=0;bottom=0;right=0;pointerEvents=1;" parent="TVZ77TM5p-_2qMqP_EqE-21" vertex="1">
          <mxGeometry x="120" width="140" height="42" as="geometry">
            <mxRectangle width="140" height="42" as="alternateBounds" />
          </mxGeometry>
        </mxCell>
        <mxCell id="TVZ77TM5p-_2qMqP_EqE-24" value="" style="shape=tableRow;horizontal=0;startSize=0;swimlaneHead=0;swimlaneBody=0;top=0;left=0;bottom=0;right=0;collapsible=0;dropTarget=0;fillColor=none;points=[[0,0.5],[1,0.5]];portConstraint=eastwest;" parent="TVZ77TM5p-_2qMqP_EqE-17" vertex="1">
          <mxGeometry y="85" width="260" height="43" as="geometry" />
        </mxCell>
        <mxCell id="TVZ77TM5p-_2qMqP_EqE-25" value="2" style="shape=partialRectangle;html=1;whiteSpace=wrap;connectable=0;overflow=hidden;fillColor=none;top=0;left=0;bottom=0;right=0;pointerEvents=1;" parent="TVZ77TM5p-_2qMqP_EqE-24" vertex="1">
          <mxGeometry width="120" height="43" as="geometry">
            <mxRectangle width="120" height="43" as="alternateBounds" />
          </mxGeometry>
        </mxCell>
        <mxCell id="TVZ77TM5p-_2qMqP_EqE-26" value="мужской" style="shape=partialRectangle;html=1;whiteSpace=wrap;connectable=0;overflow=hidden;fillColor=none;top=0;left=0;bottom=0;right=0;pointerEvents=1;" parent="TVZ77TM5p-_2qMqP_EqE-24" vertex="1">
          <mxGeometry x="120" width="140" height="43" as="geometry">
            <mxRectangle width="140" height="43" as="alternateBounds" />
          </mxGeometry>
        </mxCell>
        <mxCell id="TVZ77TM5p-_2qMqP_EqE-27" value="" style="shape=tableRow;horizontal=0;startSize=0;swimlaneHead=0;swimlaneBody=0;top=0;left=0;bottom=0;right=0;collapsible=0;dropTarget=0;fillColor=none;points=[[0,0.5],[1,0.5]];portConstraint=eastwest;" parent="TVZ77TM5p-_2qMqP_EqE-17" vertex="1">
          <mxGeometry y="128" width="260" height="42" as="geometry" />
        </mxCell>
        <mxCell id="TVZ77TM5p-_2qMqP_EqE-28" value="3" style="shape=partialRectangle;html=1;whiteSpace=wrap;connectable=0;overflow=hidden;fillColor=none;top=0;left=0;bottom=0;right=0;pointerEvents=1;" parent="TVZ77TM5p-_2qMqP_EqE-27" vertex="1">
          <mxGeometry width="120" height="42" as="geometry">
            <mxRectangle width="120" height="42" as="alternateBounds" />
          </mxGeometry>
        </mxCell>
        <mxCell id="TVZ77TM5p-_2qMqP_EqE-29" value="мужской" style="shape=partialRectangle;html=1;whiteSpace=wrap;connectable=0;overflow=hidden;fillColor=none;top=0;left=0;bottom=0;right=0;pointerEvents=1;" parent="TVZ77TM5p-_2qMqP_EqE-27" vertex="1">
          <mxGeometry x="120" width="140" height="42" as="geometry">
            <mxRectangle width="140" height="42" as="alternateBounds" />
          </mxGeometry>
        </mxCell>
        <mxCell id="6iEq-VmykoX3L1vD83Nc-1" value="" style="shape=table;startSize=0;container=1;collapsible=0;childLayout=tableLayout;" vertex="1" parent="1">
          <mxGeometry x="170" y="-200" width="380" height="170" as="geometry" />
        </mxCell>
        <mxCell id="6iEq-VmykoX3L1vD83Nc-2" value="" style="shape=tableRow;horizontal=0;startSize=0;swimlaneHead=0;swimlaneBody=0;top=0;left=0;bottom=0;right=0;collapsible=0;dropTarget=0;fillColor=none;points=[[0,0.5],[1,0.5]];portConstraint=eastwest;" vertex="1" parent="6iEq-VmykoX3L1vD83Nc-1">
          <mxGeometry width="380" height="43" as="geometry" />
        </mxCell>
        <mxCell id="6iEq-VmykoX3L1vD83Nc-3" value="primary key" style="shape=partialRectangle;html=1;whiteSpace=wrap;connectable=0;overflow=hidden;fillColor=none;top=0;left=0;bottom=0;right=0;pointerEvents=1;" vertex="1" parent="6iEq-VmykoX3L1vD83Nc-2">
          <mxGeometry width="80" height="43" as="geometry">
            <mxRectangle width="80" height="43" as="alternateBounds" />
          </mxGeometry>
        </mxCell>
        <mxCell id="6iEq-VmykoX3L1vD83Nc-4" value="Полное имя" style="shape=partialRectangle;html=1;whiteSpace=wrap;connectable=0;overflow=hidden;fillColor=none;top=0;left=0;bottom=0;right=0;pointerEvents=1;" vertex="1" parent="6iEq-VmykoX3L1vD83Nc-2">
          <mxGeometry x="80" width="120" height="43" as="geometry">
            <mxRectangle width="120" height="43" as="alternateBounds" />
          </mxGeometry>
        </mxCell>
        <mxCell id="6iEq-VmykoX3L1vD83Nc-5" value="Адрес" style="shape=partialRectangle;html=1;whiteSpace=wrap;connectable=0;overflow=hidden;fillColor=none;top=0;left=0;bottom=0;right=0;pointerEvents=1;" vertex="1" parent="6iEq-VmykoX3L1vD83Nc-2">
          <mxGeometry x="200" width="180" height="43" as="geometry">
            <mxRectangle width="180" height="43" as="alternateBounds" />
          </mxGeometry>
        </mxCell>
        <mxCell id="6iEq-VmykoX3L1vD83Nc-6" value="" style="shape=tableRow;horizontal=0;startSize=0;swimlaneHead=0;swimlaneBody=0;top=0;left=0;bottom=0;right=0;collapsible=0;dropTarget=0;fillColor=none;points=[[0,0.5],[1,0.5]];portConstraint=eastwest;" vertex="1" parent="6iEq-VmykoX3L1vD83Nc-1">
          <mxGeometry y="43" width="380" height="42" as="geometry" />
        </mxCell>
        <mxCell id="6iEq-VmykoX3L1vD83Nc-7" value="1" style="shape=partialRectangle;html=1;whiteSpace=wrap;connectable=0;overflow=hidden;fillColor=none;top=0;left=0;bottom=0;right=0;pointerEvents=1;" vertex="1" parent="6iEq-VmykoX3L1vD83Nc-6">
          <mxGeometry width="80" height="42" as="geometry">
            <mxRectangle width="80" height="42" as="alternateBounds" />
          </mxGeometry>
        </mxCell>
        <mxCell id="6iEq-VmykoX3L1vD83Nc-8" value="Ольга Егорова" style="shape=partialRectangle;html=1;whiteSpace=wrap;connectable=0;overflow=hidden;fillColor=none;top=0;left=0;bottom=0;right=0;pointerEvents=1;" vertex="1" parent="6iEq-VmykoX3L1vD83Nc-6">
          <mxGeometry x="80" width="120" height="42" as="geometry">
            <mxRectangle width="120" height="42" as="alternateBounds" />
          </mxGeometry>
        </mxCell>
        <mxCell id="6iEq-VmykoX3L1vD83Nc-9" value="ул. Набережная, 14" style="shape=partialRectangle;html=1;whiteSpace=wrap;connectable=0;overflow=hidden;fillColor=none;top=0;left=0;bottom=0;right=0;pointerEvents=1;" vertex="1" parent="6iEq-VmykoX3L1vD83Nc-6">
          <mxGeometry x="200" width="180" height="42" as="geometry">
            <mxRectangle width="180" height="42" as="alternateBounds" />
          </mxGeometry>
        </mxCell>
        <mxCell id="6iEq-VmykoX3L1vD83Nc-10" value="" style="shape=tableRow;horizontal=0;startSize=0;swimlaneHead=0;swimlaneBody=0;top=0;left=0;bottom=0;right=0;collapsible=0;dropTarget=0;fillColor=none;points=[[0,0.5],[1,0.5]];portConstraint=eastwest;" vertex="1" parent="6iEq-VmykoX3L1vD83Nc-1">
          <mxGeometry y="85" width="380" height="43" as="geometry" />
        </mxCell>
        <mxCell id="6iEq-VmykoX3L1vD83Nc-11" value="2" style="shape=partialRectangle;html=1;whiteSpace=wrap;connectable=0;overflow=hidden;fillColor=none;top=0;left=0;bottom=0;right=0;pointerEvents=1;" vertex="1" parent="6iEq-VmykoX3L1vD83Nc-10">
          <mxGeometry width="80" height="43" as="geometry">
            <mxRectangle width="80" height="43" as="alternateBounds" />
          </mxGeometry>
        </mxCell>
        <mxCell id="6iEq-VmykoX3L1vD83Nc-12" value="Сергей Иванов" style="shape=partialRectangle;html=1;whiteSpace=wrap;connectable=0;overflow=hidden;fillColor=none;top=0;left=0;bottom=0;right=0;pointerEvents=1;" vertex="1" parent="6iEq-VmykoX3L1vD83Nc-10">
          <mxGeometry x="80" width="120" height="43" as="geometry">
            <mxRectangle width="120" height="43" as="alternateBounds" />
          </mxGeometry>
        </mxCell>
        <mxCell id="6iEq-VmykoX3L1vD83Nc-13" value="ул. Ленина, 8А, 16" style="shape=partialRectangle;html=1;whiteSpace=wrap;connectable=0;overflow=hidden;fillColor=none;top=0;left=0;bottom=0;right=0;pointerEvents=1;" vertex="1" parent="6iEq-VmykoX3L1vD83Nc-10">
          <mxGeometry x="200" width="180" height="43" as="geometry">
            <mxRectangle width="180" height="43" as="alternateBounds" />
          </mxGeometry>
        </mxCell>
        <mxCell id="6iEq-VmykoX3L1vD83Nc-14" value="" style="shape=tableRow;horizontal=0;startSize=0;swimlaneHead=0;swimlaneBody=0;top=0;left=0;bottom=0;right=0;collapsible=0;dropTarget=0;fillColor=none;points=[[0,0.5],[1,0.5]];portConstraint=eastwest;" vertex="1" parent="6iEq-VmykoX3L1vD83Nc-1">
          <mxGeometry y="128" width="380" height="42" as="geometry" />
        </mxCell>
        <mxCell id="6iEq-VmykoX3L1vD83Nc-15" value="3" style="shape=partialRectangle;html=1;whiteSpace=wrap;connectable=0;overflow=hidden;fillColor=none;top=0;left=0;bottom=0;right=0;pointerEvents=1;" vertex="1" parent="6iEq-VmykoX3L1vD83Nc-14">
          <mxGeometry width="80" height="42" as="geometry">
            <mxRectangle width="80" height="42" as="alternateBounds" />
          </mxGeometry>
        </mxCell>
        <mxCell id="6iEq-VmykoX3L1vD83Nc-16" value="Илья Иванов" style="shape=partialRectangle;html=1;whiteSpace=wrap;connectable=0;overflow=hidden;fillColor=none;top=0;left=0;bottom=0;right=0;pointerEvents=1;" vertex="1" parent="6iEq-VmykoX3L1vD83Nc-14">
          <mxGeometry x="80" width="120" height="42" as="geometry">
            <mxRectangle width="120" height="42" as="alternateBounds" />
          </mxGeometry>
        </mxCell>
        <mxCell id="6iEq-VmykoX3L1vD83Nc-17" value="ул. Центральная, 20" style="shape=partialRectangle;html=1;whiteSpace=wrap;connectable=0;overflow=hidden;fillColor=none;top=0;left=0;bottom=0;right=0;pointerEvents=1;" vertex="1" parent="6iEq-VmykoX3L1vD83Nc-14">
          <mxGeometry x="200" width="180" height="42" as="geometry">
            <mxRectangle width="180" height="42" as="alternateBounds" />
          </mxGeometry>
        </mxCell>
        <mxCell id="6iEq-VmykoX3L1vD83Nc-43" value="" style="shape=table;startSize=0;container=1;collapsible=0;childLayout=tableLayout;" vertex="1" parent="1">
          <mxGeometry x="60" y="240" width="260" height="280" as="geometry" />
        </mxCell>
        <mxCell id="6iEq-VmykoX3L1vD83Nc-44" value="" style="shape=tableRow;horizontal=0;startSize=0;swimlaneHead=0;swimlaneBody=0;top=0;left=0;bottom=0;right=0;collapsible=0;dropTarget=0;fillColor=none;points=[[0,0.5],[1,0.5]];portConstraint=eastwest;" vertex="1" parent="6iEq-VmykoX3L1vD83Nc-43">
          <mxGeometry width="260" height="40" as="geometry" />
        </mxCell>
        <mxCell id="6iEq-VmykoX3L1vD83Nc-45" value="client_primary key" style="shape=partialRectangle;html=1;whiteSpace=wrap;connectable=0;overflow=hidden;fillColor=none;top=0;left=0;bottom=0;right=0;pointerEvents=1;" vertex="1" parent="6iEq-VmykoX3L1vD83Nc-44">
          <mxGeometry width="80" height="40" as="geometry">
            <mxRectangle width="80" height="40" as="alternateBounds" />
          </mxGeometry>
        </mxCell>
        <mxCell id="6iEq-VmykoX3L1vD83Nc-46" value="Полное имя&amp;nbsp;" style="shape=partialRectangle;html=1;whiteSpace=wrap;connectable=0;overflow=hidden;fillColor=none;top=0;left=0;bottom=0;right=0;pointerEvents=1;" vertex="1" parent="6iEq-VmykoX3L1vD83Nc-44">
          <mxGeometry x="80" width="93" height="40" as="geometry">
            <mxRectangle width="93" height="40" as="alternateBounds" />
          </mxGeometry>
        </mxCell>
        <mxCell id="6iEq-VmykoX3L1vD83Nc-47" value="movie_primary key" style="shape=partialRectangle;html=1;whiteSpace=wrap;connectable=0;overflow=hidden;fillColor=none;top=0;left=0;bottom=0;right=0;pointerEvents=1;" vertex="1" parent="6iEq-VmykoX3L1vD83Nc-44">
          <mxGeometry x="173" width="87" height="40" as="geometry">
            <mxRectangle width="87" height="40" as="alternateBounds" />
          </mxGeometry>
        </mxCell>
        <mxCell id="6iEq-VmykoX3L1vD83Nc-48" value="" style="shape=tableRow;horizontal=0;startSize=0;swimlaneHead=0;swimlaneBody=0;top=0;left=0;bottom=0;right=0;collapsible=0;dropTarget=0;fillColor=none;points=[[0,0.5],[1,0.5]];portConstraint=eastwest;" vertex="1" parent="6iEq-VmykoX3L1vD83Nc-43">
          <mxGeometry y="40" width="260" height="40" as="geometry" />
        </mxCell>
        <mxCell id="6iEq-VmykoX3L1vD83Nc-49" value="1" style="shape=partialRectangle;html=1;whiteSpace=wrap;connectable=0;overflow=hidden;fillColor=none;top=0;left=0;bottom=0;right=0;pointerEvents=1;" vertex="1" parent="6iEq-VmykoX3L1vD83Nc-48">
          <mxGeometry width="80" height="40" as="geometry">
            <mxRectangle width="80" height="40" as="alternateBounds" />
          </mxGeometry>
        </mxCell>
        <mxCell id="6iEq-VmykoX3L1vD83Nc-50" value="Ольга Егорова" style="shape=partialRectangle;html=1;whiteSpace=wrap;connectable=0;overflow=hidden;fillColor=none;top=0;left=0;bottom=0;right=0;pointerEvents=1;" vertex="1" parent="6iEq-VmykoX3L1vD83Nc-48">
          <mxGeometry x="80" width="93" height="40" as="geometry">
            <mxRectangle width="93" height="40" as="alternateBounds" />
          </mxGeometry>
        </mxCell>
        <mxCell id="6iEq-VmykoX3L1vD83Nc-51" value="4" style="shape=partialRectangle;html=1;whiteSpace=wrap;connectable=0;overflow=hidden;fillColor=none;top=0;left=0;bottom=0;right=0;pointerEvents=1;" vertex="1" parent="6iEq-VmykoX3L1vD83Nc-48">
          <mxGeometry x="173" width="87" height="40" as="geometry">
            <mxRectangle width="87" height="40" as="alternateBounds" />
          </mxGeometry>
        </mxCell>
        <mxCell id="6iEq-VmykoX3L1vD83Nc-52" value="" style="shape=tableRow;horizontal=0;startSize=0;swimlaneHead=0;swimlaneBody=0;top=0;left=0;bottom=0;right=0;collapsible=0;dropTarget=0;fillColor=none;points=[[0,0.5],[1,0.5]];portConstraint=eastwest;" vertex="1" parent="6iEq-VmykoX3L1vD83Nc-43">
          <mxGeometry y="80" width="260" height="40" as="geometry" />
        </mxCell>
        <mxCell id="6iEq-VmykoX3L1vD83Nc-53" value="1" style="shape=partialRectangle;html=1;whiteSpace=wrap;connectable=0;overflow=hidden;fillColor=none;top=0;left=0;bottom=0;right=0;pointerEvents=1;" vertex="1" parent="6iEq-VmykoX3L1vD83Nc-52">
          <mxGeometry width="80" height="40" as="geometry">
            <mxRectangle width="80" height="40" as="alternateBounds" />
          </mxGeometry>
        </mxCell>
        <mxCell id="6iEq-VmykoX3L1vD83Nc-54" value="Ольга Егорова" style="shape=partialRectangle;html=1;whiteSpace=wrap;connectable=0;overflow=hidden;fillColor=none;top=0;left=0;bottom=0;right=0;pointerEvents=1;" vertex="1" parent="6iEq-VmykoX3L1vD83Nc-52">
          <mxGeometry x="80" width="93" height="40" as="geometry">
            <mxRectangle width="93" height="40" as="alternateBounds" />
          </mxGeometry>
        </mxCell>
        <mxCell id="6iEq-VmykoX3L1vD83Nc-55" value="5" style="shape=partialRectangle;html=1;whiteSpace=wrap;connectable=0;overflow=hidden;fillColor=none;top=0;left=0;bottom=0;right=0;pointerEvents=1;" vertex="1" parent="6iEq-VmykoX3L1vD83Nc-52">
          <mxGeometry x="173" width="87" height="40" as="geometry">
            <mxRectangle width="87" height="40" as="alternateBounds" />
          </mxGeometry>
        </mxCell>
        <mxCell id="6iEq-VmykoX3L1vD83Nc-56" value="" style="shape=tableRow;horizontal=0;startSize=0;swimlaneHead=0;swimlaneBody=0;top=0;left=0;bottom=0;right=0;collapsible=0;dropTarget=0;fillColor=none;points=[[0,0.5],[1,0.5]];portConstraint=eastwest;" vertex="1" parent="6iEq-VmykoX3L1vD83Nc-43">
          <mxGeometry y="120" width="260" height="40" as="geometry" />
        </mxCell>
        <mxCell id="6iEq-VmykoX3L1vD83Nc-57" value="2" style="shape=partialRectangle;html=1;whiteSpace=wrap;connectable=0;overflow=hidden;fillColor=none;top=0;left=0;bottom=0;right=0;pointerEvents=1;" vertex="1" parent="6iEq-VmykoX3L1vD83Nc-56">
          <mxGeometry width="80" height="40" as="geometry">
            <mxRectangle width="80" height="40" as="alternateBounds" />
          </mxGeometry>
        </mxCell>
        <mxCell id="6iEq-VmykoX3L1vD83Nc-58" value="Сергей Иванов" style="shape=partialRectangle;html=1;whiteSpace=wrap;connectable=0;overflow=hidden;fillColor=none;top=0;left=0;bottom=0;right=0;pointerEvents=1;" vertex="1" parent="6iEq-VmykoX3L1vD83Nc-56">
          <mxGeometry x="80" width="93" height="40" as="geometry">
            <mxRectangle width="93" height="40" as="alternateBounds" />
          </mxGeometry>
        </mxCell>
        <mxCell id="6iEq-VmykoX3L1vD83Nc-59" value="1" style="shape=partialRectangle;html=1;whiteSpace=wrap;connectable=0;overflow=hidden;fillColor=none;top=0;left=0;bottom=0;right=0;pointerEvents=1;" vertex="1" parent="6iEq-VmykoX3L1vD83Nc-56">
          <mxGeometry x="173" width="87" height="40" as="geometry">
            <mxRectangle width="87" height="40" as="alternateBounds" />
          </mxGeometry>
        </mxCell>
        <mxCell id="6iEq-VmykoX3L1vD83Nc-60" value="" style="shape=tableRow;horizontal=0;startSize=0;swimlaneHead=0;swimlaneBody=0;top=0;left=0;bottom=0;right=0;collapsible=0;dropTarget=0;fillColor=none;points=[[0,0.5],[1,0.5]];portConstraint=eastwest;" vertex="1" parent="6iEq-VmykoX3L1vD83Nc-43">
          <mxGeometry y="160" width="260" height="40" as="geometry" />
        </mxCell>
        <mxCell id="6iEq-VmykoX3L1vD83Nc-61" value="2" style="shape=partialRectangle;html=1;whiteSpace=wrap;connectable=0;overflow=hidden;fillColor=none;top=0;left=0;bottom=0;right=0;pointerEvents=1;" vertex="1" parent="6iEq-VmykoX3L1vD83Nc-60">
          <mxGeometry width="80" height="40" as="geometry">
            <mxRectangle width="80" height="40" as="alternateBounds" />
          </mxGeometry>
        </mxCell>
        <mxCell id="6iEq-VmykoX3L1vD83Nc-62" value="Сергей Иванов" style="shape=partialRectangle;html=1;whiteSpace=wrap;connectable=0;overflow=hidden;fillColor=none;top=0;left=0;bottom=0;right=0;pointerEvents=1;" vertex="1" parent="6iEq-VmykoX3L1vD83Nc-60">
          <mxGeometry x="80" width="93" height="40" as="geometry">
            <mxRectangle width="93" height="40" as="alternateBounds" />
          </mxGeometry>
        </mxCell>
        <mxCell id="6iEq-VmykoX3L1vD83Nc-63" value="3" style="shape=partialRectangle;html=1;whiteSpace=wrap;connectable=0;overflow=hidden;fillColor=none;top=0;left=0;bottom=0;right=0;pointerEvents=1;" vertex="1" parent="6iEq-VmykoX3L1vD83Nc-60">
          <mxGeometry x="173" width="87" height="40" as="geometry">
            <mxRectangle width="87" height="40" as="alternateBounds" />
          </mxGeometry>
        </mxCell>
        <mxCell id="6iEq-VmykoX3L1vD83Nc-64" value="" style="shape=tableRow;horizontal=0;startSize=0;swimlaneHead=0;swimlaneBody=0;top=0;left=0;bottom=0;right=0;collapsible=0;dropTarget=0;fillColor=none;points=[[0,0.5],[1,0.5]];portConstraint=eastwest;" vertex="1" parent="6iEq-VmykoX3L1vD83Nc-43">
          <mxGeometry y="200" width="260" height="40" as="geometry" />
        </mxCell>
        <mxCell id="6iEq-VmykoX3L1vD83Nc-65" value="3" style="shape=partialRectangle;html=1;whiteSpace=wrap;connectable=0;overflow=hidden;fillColor=none;top=0;left=0;bottom=0;right=0;pointerEvents=1;" vertex="1" parent="6iEq-VmykoX3L1vD83Nc-64">
          <mxGeometry width="80" height="40" as="geometry">
            <mxRectangle width="80" height="40" as="alternateBounds" />
          </mxGeometry>
        </mxCell>
        <mxCell id="6iEq-VmykoX3L1vD83Nc-66" value="Илья Иванов" style="shape=partialRectangle;html=1;whiteSpace=wrap;connectable=0;overflow=hidden;fillColor=none;top=0;left=0;bottom=0;right=0;pointerEvents=1;" vertex="1" parent="6iEq-VmykoX3L1vD83Nc-64">
          <mxGeometry x="80" width="93" height="40" as="geometry">
            <mxRectangle width="93" height="40" as="alternateBounds" />
          </mxGeometry>
        </mxCell>
        <mxCell id="6iEq-VmykoX3L1vD83Nc-67" value="1" style="shape=partialRectangle;html=1;whiteSpace=wrap;connectable=0;overflow=hidden;fillColor=none;top=0;left=0;bottom=0;right=0;pointerEvents=1;" vertex="1" parent="6iEq-VmykoX3L1vD83Nc-64">
          <mxGeometry x="173" width="87" height="40" as="geometry">
            <mxRectangle width="87" height="40" as="alternateBounds" />
          </mxGeometry>
        </mxCell>
        <mxCell id="6iEq-VmykoX3L1vD83Nc-68" value="" style="shape=tableRow;horizontal=0;startSize=0;swimlaneHead=0;swimlaneBody=0;top=0;left=0;bottom=0;right=0;collapsible=0;dropTarget=0;fillColor=none;points=[[0,0.5],[1,0.5]];portConstraint=eastwest;" vertex="1" parent="6iEq-VmykoX3L1vD83Nc-43">
          <mxGeometry y="240" width="260" height="40" as="geometry" />
        </mxCell>
        <mxCell id="6iEq-VmykoX3L1vD83Nc-69" value="3" style="shape=partialRectangle;html=1;whiteSpace=wrap;connectable=0;overflow=hidden;fillColor=none;top=0;left=0;bottom=0;right=0;pointerEvents=1;" vertex="1" parent="6iEq-VmykoX3L1vD83Nc-68">
          <mxGeometry width="80" height="40" as="geometry">
            <mxRectangle width="80" height="40" as="alternateBounds" />
          </mxGeometry>
        </mxCell>
        <mxCell id="6iEq-VmykoX3L1vD83Nc-70" value="Илья Иванов" style="shape=partialRectangle;html=1;whiteSpace=wrap;connectable=0;overflow=hidden;fillColor=none;top=0;left=0;bottom=0;right=0;pointerEvents=1;" vertex="1" parent="6iEq-VmykoX3L1vD83Nc-68">
          <mxGeometry x="80" width="93" height="40" as="geometry">
            <mxRectangle width="93" height="40" as="alternateBounds" />
          </mxGeometry>
        </mxCell>
        <mxCell id="6iEq-VmykoX3L1vD83Nc-71" value="2" style="shape=partialRectangle;html=1;whiteSpace=wrap;connectable=0;overflow=hidden;fillColor=none;top=0;left=0;bottom=0;right=0;pointerEvents=1;" vertex="1" parent="6iEq-VmykoX3L1vD83Nc-68">
          <mxGeometry x="173" width="87" height="40" as="geometry">
            <mxRectangle width="87" height="40" as="alternateBounds" />
          </mxGeometry>
        </mxCell>
        <mxCell id="6iEq-VmykoX3L1vD83Nc-72" value="" style="shape=table;startSize=0;container=1;collapsible=0;childLayout=tableLayout;" vertex="1" parent="1">
          <mxGeometry x="400" y="240" width="300" height="280" as="geometry" />
        </mxCell>
        <mxCell id="6iEq-VmykoX3L1vD83Nc-73" value="" style="shape=tableRow;horizontal=0;startSize=0;swimlaneHead=0;swimlaneBody=0;top=0;left=0;bottom=0;right=0;collapsible=0;dropTarget=0;fillColor=none;points=[[0,0.5],[1,0.5]];portConstraint=eastwest;" vertex="1" parent="6iEq-VmykoX3L1vD83Nc-72">
          <mxGeometry width="300" height="47" as="geometry" />
        </mxCell>
        <mxCell id="6iEq-VmykoX3L1vD83Nc-74" value="primary key" style="shape=partialRectangle;html=1;whiteSpace=wrap;connectable=0;overflow=hidden;fillColor=none;top=0;left=0;bottom=0;right=0;pointerEvents=1;" vertex="1" parent="6iEq-VmykoX3L1vD83Nc-73">
          <mxGeometry width="80" height="47" as="geometry">
            <mxRectangle width="80" height="47" as="alternateBounds" />
          </mxGeometry>
        </mxCell>
        <mxCell id="6iEq-VmykoX3L1vD83Nc-75" value="Название фильма" style="shape=partialRectangle;html=1;whiteSpace=wrap;connectable=0;overflow=hidden;fillColor=none;top=0;left=0;bottom=0;right=0;pointerEvents=1;" vertex="1" parent="6iEq-VmykoX3L1vD83Nc-73">
          <mxGeometry x="80" width="220" height="47" as="geometry">
            <mxRectangle width="220" height="47" as="alternateBounds" />
          </mxGeometry>
        </mxCell>
        <mxCell id="6iEq-VmykoX3L1vD83Nc-76" value="" style="shape=tableRow;horizontal=0;startSize=0;swimlaneHead=0;swimlaneBody=0;top=0;left=0;bottom=0;right=0;collapsible=0;dropTarget=0;fillColor=none;points=[[0,0.5],[1,0.5]];portConstraint=eastwest;" vertex="1" parent="6iEq-VmykoX3L1vD83Nc-72">
          <mxGeometry y="47" width="300" height="46" as="geometry" />
        </mxCell>
        <mxCell id="6iEq-VmykoX3L1vD83Nc-77" value="1" style="shape=partialRectangle;html=1;whiteSpace=wrap;connectable=0;overflow=hidden;fillColor=none;top=0;left=0;bottom=0;right=0;pointerEvents=1;" vertex="1" parent="6iEq-VmykoX3L1vD83Nc-76">
          <mxGeometry width="80" height="46" as="geometry">
            <mxRectangle width="80" height="46" as="alternateBounds" />
          </mxGeometry>
        </mxCell>
        <mxCell id="6iEq-VmykoX3L1vD83Nc-78" value="Пираты Карибского моря" style="shape=partialRectangle;html=1;whiteSpace=wrap;connectable=0;overflow=hidden;fillColor=none;top=0;left=0;bottom=0;right=0;pointerEvents=1;" vertex="1" parent="6iEq-VmykoX3L1vD83Nc-76">
          <mxGeometry x="80" width="220" height="46" as="geometry">
            <mxRectangle width="220" height="46" as="alternateBounds" />
          </mxGeometry>
        </mxCell>
        <mxCell id="6iEq-VmykoX3L1vD83Nc-79" value="" style="shape=tableRow;horizontal=0;startSize=0;swimlaneHead=0;swimlaneBody=0;top=0;left=0;bottom=0;right=0;collapsible=0;dropTarget=0;fillColor=none;points=[[0,0.5],[1,0.5]];portConstraint=eastwest;" vertex="1" parent="6iEq-VmykoX3L1vD83Nc-72">
          <mxGeometry y="93" width="300" height="47" as="geometry" />
        </mxCell>
        <mxCell id="6iEq-VmykoX3L1vD83Nc-80" value="2" style="shape=partialRectangle;html=1;whiteSpace=wrap;connectable=0;overflow=hidden;fillColor=none;top=0;left=0;bottom=0;right=0;pointerEvents=1;" vertex="1" parent="6iEq-VmykoX3L1vD83Nc-79">
          <mxGeometry width="80" height="47" as="geometry">
            <mxRectangle width="80" height="47" as="alternateBounds" />
          </mxGeometry>
        </mxCell>
        <mxCell id="6iEq-VmykoX3L1vD83Nc-81" value="Интерстеллар" style="shape=partialRectangle;html=1;whiteSpace=wrap;connectable=0;overflow=hidden;fillColor=none;top=0;left=0;bottom=0;right=0;pointerEvents=1;" vertex="1" parent="6iEq-VmykoX3L1vD83Nc-79">
          <mxGeometry x="80" width="220" height="47" as="geometry">
            <mxRectangle width="220" height="47" as="alternateBounds" />
          </mxGeometry>
        </mxCell>
        <mxCell id="6iEq-VmykoX3L1vD83Nc-82" value="" style="shape=tableRow;horizontal=0;startSize=0;swimlaneHead=0;swimlaneBody=0;top=0;left=0;bottom=0;right=0;collapsible=0;dropTarget=0;fillColor=none;points=[[0,0.5],[1,0.5]];portConstraint=eastwest;" vertex="1" parent="6iEq-VmykoX3L1vD83Nc-72">
          <mxGeometry y="140" width="300" height="47" as="geometry" />
        </mxCell>
        <mxCell id="6iEq-VmykoX3L1vD83Nc-83" value="3" style="shape=partialRectangle;html=1;whiteSpace=wrap;connectable=0;overflow=hidden;fillColor=none;top=0;left=0;bottom=0;right=0;pointerEvents=1;" vertex="1" parent="6iEq-VmykoX3L1vD83Nc-82">
          <mxGeometry width="80" height="47" as="geometry">
            <mxRectangle width="80" height="47" as="alternateBounds" />
          </mxGeometry>
        </mxCell>
        <mxCell id="6iEq-VmykoX3L1vD83Nc-84" value="Матрица" style="shape=partialRectangle;html=1;whiteSpace=wrap;connectable=0;overflow=hidden;fillColor=none;top=0;left=0;bottom=0;right=0;pointerEvents=1;" vertex="1" parent="6iEq-VmykoX3L1vD83Nc-82">
          <mxGeometry x="80" width="220" height="47" as="geometry">
            <mxRectangle width="220" height="47" as="alternateBounds" />
          </mxGeometry>
        </mxCell>
        <mxCell id="6iEq-VmykoX3L1vD83Nc-85" value="" style="shape=tableRow;horizontal=0;startSize=0;swimlaneHead=0;swimlaneBody=0;top=0;left=0;bottom=0;right=0;collapsible=0;dropTarget=0;fillColor=none;points=[[0,0.5],[1,0.5]];portConstraint=eastwest;" vertex="1" parent="6iEq-VmykoX3L1vD83Nc-72">
          <mxGeometry y="187" width="300" height="46" as="geometry" />
        </mxCell>
        <mxCell id="6iEq-VmykoX3L1vD83Nc-86" value="4" style="shape=partialRectangle;html=1;whiteSpace=wrap;connectable=0;overflow=hidden;fillColor=none;top=0;left=0;bottom=0;right=0;pointerEvents=1;" vertex="1" parent="6iEq-VmykoX3L1vD83Nc-85">
          <mxGeometry width="80" height="46" as="geometry">
            <mxRectangle width="80" height="46" as="alternateBounds" />
          </mxGeometry>
        </mxCell>
        <mxCell id="6iEq-VmykoX3L1vD83Nc-87" value="Бойцовский клуб" style="shape=partialRectangle;html=1;whiteSpace=wrap;connectable=0;overflow=hidden;fillColor=none;top=0;left=0;bottom=0;right=0;pointerEvents=1;" vertex="1" parent="6iEq-VmykoX3L1vD83Nc-85">
          <mxGeometry x="80" width="220" height="46" as="geometry">
            <mxRectangle width="220" height="46" as="alternateBounds" />
          </mxGeometry>
        </mxCell>
        <mxCell id="6iEq-VmykoX3L1vD83Nc-88" value="" style="shape=tableRow;horizontal=0;startSize=0;swimlaneHead=0;swimlaneBody=0;top=0;left=0;bottom=0;right=0;collapsible=0;dropTarget=0;fillColor=none;points=[[0,0.5],[1,0.5]];portConstraint=eastwest;" vertex="1" parent="6iEq-VmykoX3L1vD83Nc-72">
          <mxGeometry y="233" width="300" height="47" as="geometry" />
        </mxCell>
        <mxCell id="6iEq-VmykoX3L1vD83Nc-89" value="5" style="shape=partialRectangle;html=1;whiteSpace=wrap;connectable=0;overflow=hidden;fillColor=none;top=0;left=0;bottom=0;right=0;pointerEvents=1;" vertex="1" parent="6iEq-VmykoX3L1vD83Nc-88">
          <mxGeometry width="80" height="47" as="geometry">
            <mxRectangle width="80" height="47" as="alternateBounds" />
          </mxGeometry>
        </mxCell>
        <mxCell id="6iEq-VmykoX3L1vD83Nc-90" value="Весна на Заречной улице" style="shape=partialRectangle;html=1;whiteSpace=wrap;connectable=0;overflow=hidden;fillColor=none;top=0;left=0;bottom=0;right=0;pointerEvents=1;" vertex="1" parent="6iEq-VmykoX3L1vD83Nc-88">
          <mxGeometry x="80" width="220" height="47" as="geometry">
            <mxRectangle width="220" height="47" as="alternateBounds" />
          </mxGeometry>
        </mxCell>
        <mxCell id="6iEq-VmykoX3L1vD83Nc-91" value="" style="endArrow=classic;html=1;rounded=0;entryX=1;entryY=0.5;entryDx=0;entryDy=0;" edge="1" parent="1" target="6iEq-VmykoX3L1vD83Nc-44">
          <mxGeometry relative="1" as="geometry">
            <mxPoint x="400" y="260" as="sourcePoint" />
            <mxPoint x="480" y="340" as="targetPoint" />
          </mxGeometry>
        </mxCell>
        <mxCell id="6iEq-VmykoX3L1vD83Nc-93" value="&lt;font style=&quot;font-size: 8px;&quot;&gt;Много ко многим&lt;/font&gt;" style="rounded=1;whiteSpace=wrap;html=1;" vertex="1" parent="1">
          <mxGeometry x="330" y="220" width="60" height="30" as="geometry" />
        </mxCell>
        <mxCell id="6iEq-VmykoX3L1vD83Nc-94" value="" style="endArrow=classic;html=1;rounded=0;fontSize=8;entryX=0.226;entryY=-0.018;entryDx=0;entryDy=0;entryPerimeter=0;exitX=0.113;exitY=1.048;exitDx=0;exitDy=0;exitPerimeter=0;" edge="1" parent="1" source="6iEq-VmykoX3L1vD83Nc-14" target="TVZ77TM5p-_2qMqP_EqE-18">
          <mxGeometry relative="1" as="geometry">
            <mxPoint x="280" y="-80" as="sourcePoint" />
            <mxPoint x="380" y="-80" as="targetPoint" />
          </mxGeometry>
        </mxCell>
        <mxCell id="6iEq-VmykoX3L1vD83Nc-95" value="Много ко многим" style="edgeLabel;resizable=0;html=1;align=center;verticalAlign=middle;fontSize=8;" connectable="0" vertex="1" parent="6iEq-VmykoX3L1vD83Nc-94">
          <mxGeometry relative="1" as="geometry" />
        </mxCell>
      </root>
    </mxGraphModel>
  </diagram>
</mxfile>
